<?xml version="1.0" standalone="no"?>
<svg width="64" height="64" viewBox="0 0 384 384" version="1.1" xmlns="http://www.w3.org/2000/svg">
  <path d="M192 376c49 0 88 -39 88 -88s-39 -88 -88 -88s-88 39 -88 88s39 88 88 88zM192 416c71 0 128 -57 128 -128s-57 -128 -128 -128s-128 57 -128 128s57 128 128 128zM192 192c53 0 96 43 96 96s-43 96 -96 96s-96 -43 -96 -96s43 -96 96 -96zM83 194c26 -30 65 -50 109 -50 c12 0 23 1 34 4l-34 -74l-48 -106l-48 80h-96zM301 194l83 -146h-96l-48 -80l-40 88l45 98c22 9 41 23 56 40z" transform="matrix(1,0,0,-1,0,384)"/>
</svg>