<?xml version="1.0" standalone="no"?>
<svg width="64" height="64" viewBox="0 0 416 384" version="1.1" xmlns="http://www.w3.org/2000/svg">
  <path d="M184 276c0 13 7 20 20 20s20 -7 20 -20s-7 -20 -20 -20s-20 7 -20 20zM224 104h16v-8h-64v8h16v120h-16v8h48v-128zM208 400c57 0 106 -20 147 -61s61 -90 61 -147s-20 -106 -61 -147s-90 -61 -147 -61s-106 20 -147 61s-61 90 -61 147s20 106 61 147s90 61 147 61z M208 1c53 0 98 19 135 56s56 82 56 135s-19 98 -56 135s-82 56 -135 56s-98 -19 -135 -56s-56 -82 -56 -135s19 -98 56 -135s82 -56 135 -56z" transform="matrix(1,0,0,-1,0,384)"/>
</svg>