<?xml version="1.0" standalone="no"?>
<svg width="64" height="64" viewBox="0 0 384 384" version="1.1" xmlns="http://www.w3.org/2000/svg">
  <path d="M302 236c47 -13 82 -57 82 -108c0 -62 -50 -112 -112 -112c-31 0 -60 13 -80 34c-20 -21 -49 -34 -80 -34c-62 0 -112 50 -112 112c0 51 35 95 82 108c-1 7 -2 13 -2 20c0 62 50 112 112 112s112 -50 112 -112c0 -7 -1 -13 -2 -20zM96 256c0 -6 0 -12 1 -17 c5 1 10 1 15 1c31 0 60 -13 80 -34c20 21 49 34 80 34c5 0 10 0 15 -1c1 5 1 11 1 17c0 53 -43 96 -96 96s-96 -43 -96 -96zM208 128c0 6 0 12 -1 17c-5 -1 -10 -1 -15 -1s-10 0 -15 1c-1 -5 -1 -11 -1 -17c0 -20 6 -38 16 -53c10 15 16 33 16 53zM192 160c3 0 7 1 10 1 c-3 7 -6 14 -10 20c-4 -6 -7 -13 -10 -20c3 0 7 -1 10 -1zM166 164c4 11 9 21 16 30c-18 18 -43 30 -70 30c-3 0 -7 -1 -10 -1c10 -29 34 -51 64 -59zM202 194c7 -9 12 -19 16 -30c30 8 54 30 64 59c-3 0 -7 1 -10 1c-27 0 -52 -12 -70 -30zM112 32c27 0 52 12 70 30 c-14 19 -22 41 -22 66c0 7 1 13 2 20c-36 10 -64 37 -76 72c-40 -11 -70 -48 -70 -92c0 -53 43 -96 96 -96zM272 32c53 0 96 43 96 96c0 44 -30 81 -70 92c-12 -35 -40 -62 -76 -72c1 -7 2 -13 2 -20c0 -25 -8 -47 -22 -66c18 -18 43 -30 70 -30z" transform="matrix(1,0,0,-1,0,384)"/>
</svg>