<?xml version="1.0" encoding="utf-8"?>
<!-- Generator: Adobe Illustrator 16.0.0, SVG Export Plug-In . SVG Version: 6.00 Build 0)  -->
<!DOCTYPE svg PUBLIC "-//W3C//DTD SVG 1.1//EN" "http://www.w3.org/Graphics/SVG/1.1/DTD/svg11.dtd">
<svg version="1.1" id="图层_1" xmlns="http://www.w3.org/2000/svg" xmlns:xlink="http://www.w3.org/1999/xlink" x="0px" y="0px"
	 width="64px" height="58.796px" viewBox="0 0 64 58.796" enable-background="new 0 0 64 58.796" xml:space="preserve">
<g>
	<polygon points="51.598,17.762 51.624,0.002 41.799,0.003 41.799,17.762 46.699,14.547 	"/>
	<path d="M59.016,0.001l-4.968,0.001v22.354l-7.349-4.899l-7.35,4.899l0.024-22.352l-2.624,0c-1.012,0-1.719-0.215-3.521,2.326l0,0
		v50.373l-1.225,0.92l-1.225-0.92l-0.006-50.57c-0.227-1.016-2.755-2.131-2.755-2.131L4.859,0.004
		C0.094,0.345,0.016,4.475,0.016,4.475S0,43.044,0,48.462c0,5.416,4.859,5.43,4.859,5.43s19.433,0.004,22.828,0.033
		c3.395,0.191,3.088,2.879,3.088,2.879v1.992h2.449c0-0.15,0-0.607,0-1.855c0-2.459,3.828-3.045,3.828-3.045s18.093,0,22.485-0.033
		c4.413-0.684,4.456-4.922,4.456-4.922S64,9.367,64,4.617C63.578-0.071,59.016,0.001,59.016,0.001z"/>
</g>
</svg>
