<?xml version="1.0" standalone="no"?>
<svg version="1.1" xmlns="http://www.w3.org/2000/svg" width="64" height="64">
  <path d="M320 128h-128c-35.2 0-64 28.8-64 64v128c0 35.2 28.8 64 64 64h128c35.2 0 64-28.8 64-64v-128c0-35.2-28.8-64-64-64z" transform=""/>
  <path d="M704 384h128c35.2 0 64-28.8 64-64v-128c0-35.2-28.8-64-64-64h-128c-35.2 0-64 28.8-64 64v128c0 35.2 28.8 64 64 64zM704 192h128v128h-128v-128z" transform=""/>
  <path d="M320 640h-128c-35.2 0-64 28.8-64 64v128c0 35.2 28.8 64 64 64h128c35.2 0 64-28.8 64-64v-128c0-35.2-28.8-64-64-64zM320 832h-128v-128h128v128z" transform=""/>
  <path d="M832 640h-128c-35.2 0-64 28.8-64 64v128c0 35.2 28.8 64 64 64h128c35.2 0 64-28.8 64-64v-128c0-35.2-28.8-64-64-64z" transform=""/>
  <path d="M896 512h-64c-85.476 0-165.834-33.286-226.274-93.724-60.44-60.442-93.726-140.802-93.726-226.276v-64c0-70.4-57.6-128-128-128h-256c-70.4 0-128 57.6-128 128v256c0 70.4 57.6 128 128 128h64c85.476 0 165.834 33.286 226.274 93.724 60.44 60.442 93.726 140.802 93.726 226.276v64c0 70.4 57.6 128 128 128h256c70.4 0 128-57.6 128-128v-256c0-70.4-57.6-128-128-128zM960 896c0 16.954-6.696 32.986-18.856 45.144-12.158 12.16-28.19 18.856-45.144 18.856h-256c-16.954 0-32.986-6.696-45.144-18.856-12.16-12.158-18.856-28.19-18.856-45.144v-64c0-212.078-171.922-384-384-384h-64c-16.954 0-32.986-6.696-45.146-18.854-12.158-12.16-18.854-28.192-18.854-45.146v-256c0-16.954 6.696-32.986 18.854-45.146 12.16-12.158 28.192-18.854 45.146-18.854h256c16.954 0 32.986 6.696 45.146 18.854 12.158 12.16 18.854 28.192 18.854 45.146v64c0 212.078 171.922 384 384 384h64c16.954 0 32.986 6.696 45.144 18.856 12.16 12.158 18.856 28.19 18.856 45.144v256z" transform=""/>
</svg>