<?xml version="1.0" standalone="no"?>
<svg width="64" height="64" viewBox="0 0 404 384" version="1.1" xmlns="http://www.w3.org/2000/svg">
  <path d="M385 256l-55 52l-9 -9c35 -32 57 -79 57 -130c0 -44 -16 -83 -43 -114l37 -45l-13 -10l-35 43c-32 -30 -75 -49 -122 -49v0v0c-47 0 -90 19 -122 49l-35 -43l-12 10l36 45c-27 31 -43 70 -43 114c0 51 22 98 57 130l-9 9l-54 -52c-12 14 -20 32 -20 52c0 44 35 80 80 82 h5c20 0 39 -7 54 -18l-54 -53l11 -10c26 19 56 32 90 35v0c0 8 8 16 16 16s15 -8 15 -16v0c34 -3 65 -16 91 -35l11 11l-54 52c15 11 34 18 54 18h5c45 -2 80 -38 80 -82c0 -20 -7 -38 -19 -52zM218 144v144h-16v-128h-96v-16h112z" transform="matrix(1,0,0,-1,0,384)"/>
</svg>