<?xml version="1.0" standalone="no"?>
<svg width="64" height="64" viewBox="0 0 416 384" version="1.1" xmlns="http://www.w3.org/2000/svg">
  <path d="M76 48c-42 0 -76 31 -76 71v209c0 40 34 72 76 72h264c42 0 76 -32 76 -72v-209c0 -40 -34 -71 -76 -71h-4v-64s-79 54 -86 59s-7 5 -21 5h-153zM304 256c-18 0 -32 -14 -32 -32s14 -32 32 -32s32 14 32 32s-14 32 -32 32zM208 256c-18 0 -32 -14 -32 -32s14 -32 32 -32 s32 14 32 32s-14 32 -32 32zM112 256c-18 0 -32 -14 -32 -32s14 -32 32 -32s32 14 32 32s-14 32 -32 32z" transform="matrix(1,0,0,-1,0,384)"/>
</svg>