<?xml version="1.0" standalone="no"?>
<svg version="1.1" xmlns="http://www.w3.org/2000/svg" width="64" height="64">
  <path d="M192 512c0-12.18 0.704-24.196 2.030-36.022l-184.98-60.104c-5.916 31.14-9.050 63.264-9.050 96.126 0 147.23 62.166 279.922 161.654 373.324l114.284-157.296c-52.124-56.926-83.938-132.758-83.938-216.028zM832 512c0 83.268-31.812 159.102-83.938 216.028l114.284 157.296c99.488-93.402 161.654-226.094 161.654-373.324 0-32.862-3.132-64.986-9.048-96.126l-184.98 60.104c1.324 11.828 2.028 23.842 2.028 36.022zM576 198.408c91.934 18.662 169.544 76.742 214.45 155.826l184.978-60.102c-73.196-155.42-222.24-268.060-399.428-290.156v194.432zM233.55 354.232c44.906-79.084 122.516-137.164 214.45-155.826v-194.43c-177.188 22.096-326.23 134.736-399.426 290.154l184.976 60.102zM644.556 803.328c-40.39 18.408-85.272 28.672-132.556 28.672s-92.166-10.264-132.554-28.67l-114.292 157.31c73.206 40.366 157.336 63.36 246.846 63.36s173.64-22.994 246.848-63.36l-114.292-157.312z" transform=""/>
</svg>