<?xml version="1.0" standalone="no"?>
<svg width="64" height="64" viewBox="0 0 348 384" version="1.1" xmlns="http://www.w3.org/2000/svg">
  <path d="M348 38v-19v0v0c0 -9 -6 -16 -15 -16h-317v0c-9 0 -16 7 -16 16v0v0v19v0c0 9 7 16 16 16v0h317c9 0 15 -7 15 -16v0zM44 251c1 -1 1 0 2 -1l34 -35l82 81v0c3 3 7 5 12 5s9 -2 12 -5v0l82 -81l35 35c0 1 0 2 1 2h1v0c3 2 6 4 10 4c9 0 17 -8 17 -17v-3v-145v0v0v-2v0 c-1 -8 -8 -14 -17 -14v0v-1h-282v0v0c-9 0 -15 7 -16 15h-1v150h1c0 9 7 16 16 16c4 0 8 -1 11 -4v0v0zM292 208v0h-1h1zM2 309c0 21 10 31 31 31s30 -10 30 -31s-9 -31 -30 -31s-31 10 -31 31zM283 309c0 21 10 31 31 31s31 -10 31 -31s-10 -31 -31 -31s-31 10 -31 31z M145 350c0 21 10 31 31 31s31 -10 31 -31s-10 -31 -31 -31s-31 10 -31 31z" transform="matrix(1,0,0,-1,0,384)"/>
</svg>