<?xml version="1.0" standalone="no"?>
<svg width="64" height="64" viewBox="0 0 1024 768" version="1.1" xmlns="http://www.w3.org/2000/svg">
  <path d="M341 469h-128v128h-85v-128h-128v-85h128v-128h85v128h128v85zM768 427q54 0 91 36.5t37 91t-37 91.5t-91 37q-6 0 -19 -2.5t-19 -2.5q38 -57 38 -123t-38 -124q6 0 19 -2t19 -2zM554.5 427q54.5 0 91.5 36.5t37 91t-37 91.5t-91.5 37t-91 -37t-36.5 -91.5t36.5 -91    t91 -36.5zM836 333q60 -52 60 -120v-85h128v85q0 31 -30 57t-71 41t-87 22zM555 341q-34 0 -76.5 -8t-83.5 -23t-68.5 -41t-27.5 -56v-85h512v85q0 30 -28 56t-69 41t-83 23t-76 8z" transform="matrix(1,0,0,-1,0,768)"/>
</svg>