<?xml version="1.0" encoding="utf-8"?>
<!-- Generator: Adobe Illustrator 16.0.0, SVG Export Plug-In . SVG Version: 6.00 Build 0)  -->
<!DOCTYPE svg PUBLIC "-//W3C//DTD SVG 1.1//EN" "http://www.w3.org/Graphics/SVG/1.1/DTD/svg11.dtd">
<svg version="1.1" id="图层_1" xmlns="http://www.w3.org/2000/svg" xmlns:xlink="http://www.w3.org/1999/xlink" x="0px" y="0px"
	 width="64px" height="58.794px" viewBox="0 0 64 58.794" enable-background="new 0 0 64 58.794" xml:space="preserve">
<path d="M59.016,0L36.75,0.003c-1.328,0-3.016-0.013-4.75,1.834C30.484,0.09,28.417,0.02,28.417,0.02L4.859,0.003
	C0.094,0.344,0.016,4.474,0.016,4.474S0,43.043,0,48.46s4.859,5.431,4.859,5.431s19.433,0.004,22.828,0.032
	c3.395,0.192,3.088,2.88,3.088,2.88v1.991h2.45c0-0.149,0-0.606,0-1.855c0-2.459,3.828-3.044,3.828-3.044s18.093,0,22.485-0.033
	c4.413-0.685,4.456-4.922,4.456-4.922S64,9.366,64,4.616C63.578-0.072,59.016,0,59.016,0z M30.775,53.129
	c0,0-0.941-1.681-3.525-1.683S5.053,51.445,5.053,51.445s-2.175-0.042-2.45-2.756c0-2.808,0-43.667,0-43.667S2.578,2.45,5.203,2.45
	s21.924,0.007,21.924,0.007s1.594,0.2,2.504,1.185s1.144,1.547,1.144,2.693S30.775,53.129,30.775,53.129z M41.799,2.461
	c2.878-0.001,6.564-0.002,9.799-0.003v15.303l-4.898-3.062l-4.9,3.062V2.461z M61.4,48.696c-0.274,2.713-2.449,2.756-2.449,2.756
	s-19.613,0-22.197,0.002s-3.525,1.682-3.525,1.682s0-45.648,0-46.794s0.234-1.708,1.145-2.693s2.504-1.185,2.504-1.185
	s0.959,0,2.473-0.001v20.045l7.35-4.9l7.349,4.9V2.457c2.282,0,4.075-0.001,4.753-0.001c2.625,0,2.6,2.572,2.6,2.572
	S61.4,45.887,61.4,48.696z"/>
</svg>
