<?xml version="1.0" standalone="no"?>
<svg width="64" height="64" viewBox="0 0 489 384" version="1.1" xmlns="http://www.w3.org/2000/svg">
  <path d="M478 192l11 -11l-52 -53l-53 53l10 11l43 -41zM449 192v0v0c0 -7 0 -14 -1 -21l-16 1c1 7 1 14 1 21c-1 103 -85 187 -188 187c-68 0 -131 -37 -164 -96l-14 8c36 64 104 104 178 104c112 0 203 -91 204 -202v0v-2zM409 100l14 -8c-36 -64 -104 -104 -178 -104 c-111 0 -202 90 -204 200v0v3v1v0c0 7 0 14 1 21l16 -1c-1 -7 -1 -14 -1 -21c0 -103 85 -187 188 -187c68 0 131 37 164 96zM53 256l52 -53l-11 -11l-41 41l-42 -41l-11 11z" transform="matrix(1,0,0,-1,0,384)"/>
</svg>