<?xml version="1.0" standalone="no"?>
<svg width="64" height="64" viewBox="0 0 352 384" version="1.1" xmlns="http://www.w3.org/2000/svg">
  <path d="M177 328h-2c-6 0 -24 -5 -24 -5c-46 -10 -78 -53 -78 -100v-114v-13l-9 -10l-8 -8h240l-8 8l-9 10v13v114c0 47 -32 90 -78 100c0 0 -17 5 -24 5zM176 400v0c18 0 31 -13 31 -31v-15c59 -14 104 -68 104 -131v-114l41 -42v-21h-352v21l41 42v114c0 63 45 117 104 131v15 c0 18 13 31 31 31zM217 26v0c0 -23 -18 -42 -41 -42s-41 19 -41 42h82z" transform="matrix(1,0,0,-1,0,384)"/>
</svg>