<?xml version="1.0" standalone="no"?>
<svg width="64" height="64" viewBox="0 0 512 384" version="1.1" xmlns="http://www.w3.org/2000/svg">
  <path d="M336 224c-26 0 -48 22 -48 48s22 48 48 48s48 -22 48 -48s-22 -48 -48 -48zM420 384c16 0 28 -12 28 -28v-328c0 -16 -12 -28 -28 -28h-392c-16 0 -28 12 -28 28v328c0 16 12 28 28 28h392zM317 186l99 -106v260c0 7 -6 12 -13 12h-358c-7 0 -12 -5 -13 -12v-260l126 152 c4 4 10 8 17 8s13 -2 17 -7l54 -59l4 -4c3 -2 7 -4 11 -4s8 2 12 5l18 16c4 3 8 5 13 5s10 -2 13 -6z" transform="matrix(1,0,0,-1,0,384)"/>
</svg>