<?xml version="1.0" standalone="no"?>
<svg width="64" height="64" viewBox="0 0 216 384" version="1.1" xmlns="http://www.w3.org/2000/svg">
  <path d="M195 133c7 0 14 1 21 3c-4 -7 -7 -12 -12 -18c-21 -25 -53 -41 -88 -41c-64 0 -116 51 -116 115c0 52 34 96 81 111c7 2 14 3 22 4c-4 -6 -8 -12 -11 -18c-7 -14 -11 -30 -11 -47c0 -29 11 -56 32 -77s48 -32 77 -32h5zM116 93c25 0 48 9 65 24c-65 5 -116 59 -116 125 c0 14 2 28 6 40c-33 -16 -55 -51 -55 -90c0 -55 45 -99 100 -99z" transform="matrix(1,0,0,-1,0,384)"/>
</svg>